<?xml version="1.0" encoding="UTF-8" standalone="no"?>
<!-- Created with Inkscape (http://www.inkscape.org/) -->

<svg
   xmlns:dc="http://purl.org/dc/elements/1.1/"
   xmlns:cc="http://creativecommons.org/ns#"
   xmlns:rdf="http://www.w3.org/1999/02/22-rdf-syntax-ns#"
   xmlns:svg="http://www.w3.org/2000/svg"
   xmlns="http://www.w3.org/2000/svg"
   xmlns:sodipodi="http://sodipodi.sourceforge.net/DTD/sodipodi-0.dtd"
   xmlns:inkscape="http://www.inkscape.org/namespaces/inkscape"
   version="1.0"
   width="60"
   height="60"
   viewBox="0 0 686.931 472.607"
   id="Layer_1"
   xml:space="preserve"
   inkscape:version="0.91 r13725"
   sodipodi:docname="book.svg"
   inkscape:export-filename="/Users/aboudou/Desktop/book@3x.png"
   inkscape:export-xdpi="135"
   inkscape:export-ydpi="135"><metadata
     id="metadata22"><rdf:RDF><cc:Work
         rdf:about=""><dc:format>image/svg+xml</dc:format><dc:type
           rdf:resource="http://purl.org/dc/dcmitype/StillImage" /></cc:Work></rdf:RDF></metadata><sodipodi:namedview
     pagecolor="#ffffff"
     bordercolor="#666666"
     borderopacity="1"
     objecttolerance="10"
     gridtolerance="10"
     guidetolerance="10"
     inkscape:pageopacity="0"
     inkscape:pageshadow="2"
     inkscape:window-width="1440"
     inkscape:window-height="851"
     id="namedview20"
     showgrid="false"
     inkscape:zoom="13.083333"
     inkscape:cx="-1.3757977"
     inkscape:cy="29.999999"
     inkscape:window-x="0"
     inkscape:window-y="0"
     inkscape:window-maximized="1"
     inkscape:current-layer="Layer_1" /><defs
     id="defs36" /><path
     d="m 685.32729,213.75854 c -0.24086,-0.98037 -0.58265,-1.93746 -1.0004,-2.81745 -0.41775,-0.88 -0.91146,-1.68582 -1.45613,-2.36218 -0.54367,-0.67636 -1.13932,-1.22618 -1.75994,-1.59418 L 395.92989,37.751572 c -0.41675,-0.251636 -0.83949,-0.574545 -1.27023,-0.975998 -0.43075,-0.401454 -0.86948,-0.882908 -1.31921,-1.454543 -0.44973,-0.571636 -0.91146,-1.230544 -1.38717,-1.98836 -0.47572,-0.757817 -0.96442,-1.614543 -1.47012,-2.57745 -0.75255,-1.432725 -1.52009,-3.099631 -2.28963,-4.974537 -0.76953,-1.874906 -1.54207,-3.957811 -2.30162,-6.22108 -0.76054,-2.263269 -1.50809,-4.706901 -2.22866,-7.304715 -0.72157,-2.5992677 -1.41615,-5.3498083 -2.06976,-8.2283487 -0.6586,-2.882904 -1.28023,-5.8908987 -1.85688,-8.9978024 -0.57566,-3.1083581 -1.10634,-6.3185339 -1.58405,-9.6028919 -0.47872,-3.287267 -0.90246,-6.65017 -1.26724,-10.063983 -0.36378,-3.418175 -0.6666,-6.88726 -0.89946,-10.382527 -0.31581,-4.666173 -0.49271,-9.151984 -0.54068,-13.409431 -0.049,-4.266174 0.03,-8.30544 0.22587,-12.07416 0.19488,-3.774539 0.50569,-7.277078 0.92044,-10.462527 0.41476,-3.189813 0.93444,-6.062535 1.54308,-8.570167 0.30282,-1.253816 0.62862,-2.414541 0.97242,-3.479267 0.34379,-1.064725 0.70557,-2.033451 1.08235,-2.903267 0.37577,-0.871272 0.76654,-1.642179 1.1663,-2.311269 0.39976,-0.66909 0.81051,-1.237816 1.22526,-1.701815 0.075,-0.08291 0.14991,-0.162909 0.22587,-0.24 0.076,-0.07709 0.14991,-0.151272 0.22486,-0.219636 0.075,-0.07127 0.14991,-0.138181 0.22487,-0.202181 0.075,-0.064 0.14891,-0.125091 0.22486,-0.183273 C 260.09938,5.1712656 136.72938,101.11437 13.349398,197.05893 c -0.06396,0.0495 -0.126924,0.10182 -0.190885,0.15854 -0.06396,0.0567 -0.126924,0.11637 -0.189887,0.17891 -0.06296,0.0626 -0.125924,0.12946 -0.188886,0.19782 -0.06196,0.0698 -0.124925,0.14255 -0.187888,0.21818 -0.343793,0.42473 -0.674595,0.96291 -0.987407,1.60873 -0.312813,0.64581 -0.608635,1.40072 -0.88347,2.26181 -0.273836,0.86109 -0.527684,1.82836 -0.7565464,2.90181 -0.2288627,1.072 -0.4327404,2.24727 -0.6076355,3.52727 -0.3547871,2.55418 -0.596642,5.50835 -0.7155707,8.81598 -0.1199281,3.30182 -0.1179293,6.95272 0.011993,10.90908 0.1299221,3.94908 0.3887668,8.20216 0.7825306,12.71561 0.3937638,4.50326 0.923446,9.26398 1.596042,14.23852 0.5007,3.72508 1.063362,7.43271 1.676994,11.09525 0.613632,3.65963 1.278234,7.27417 1.986808,10.81744 0.707576,3.5389 1.457126,7.00653 2.240656,10.37671 0.782531,3.36581 1.60004,6.63562 2.440536,9.7818 0.835499,3.13745 1.698981,6.14981 2.573457,9.00216 0.874475,2.85382 1.759944,5.54763 2.642414,8.05672 0.882471,2.50618 1.761943,4.82472 2.621428,6.92508 0.860484,2.10036 1.701979,3.98108 2.509494,5.61308 0.543674,1.09672 1.062363,2.07999 1.561064,2.95417 0.498701,0.87709 0.976414,1.64655 1.436138,2.32145 0.459725,0.67491 0.903458,1.25237 1.332201,1.74691 0.428743,0.49455 0.842495,0.90182 1.246253,1.23636 L 314.84753,562.73247 c 0.61663,0.50327 1.22227,1.19272 1.78993,2.00872 0.56666,0.81745 1.09634,1.76 1.55906,2.76945 0.46273,1.008 0.85849,2.08581 1.16231,3.16945 0.30282,1.08218 0.51269,2.17163 0.60064,3.20727 0.044,0.52072 0.056,1.00363 0.038,1.44436 -0.019,0.44218 -0.067,0.84218 -0.14291,1.19854 -0.076,0.35636 -0.17989,0.66909 -0.30782,0.93673 -0.12792,0.26618 -0.28183,0.48581 -0.45672,0.65745 121.79494,-119.06452 243.58887,-238.13195 365.38381,-357.19937 0.19988,-0.19637 0.38077,-0.43491 0.53768,-0.71273 0.1569,-0.27782 0.29182,-0.59636 0.39976,-0.95127 0.10793,-0.35491 0.18988,-0.74618 0.24385,-1.17236 0.053,-0.42473 0.077,-0.88436 0.069,-1.37454 -0.014,-0.97309 -0.15491,-1.97673 -0.39676,-2.95563 z"
     id="path3"
     style="fill:#ca521f;stroke:#000000;stroke-width:11.44885;stroke-opacity:1;stroke-miterlimit:4;stroke-dasharray:none"
     inkscape:connector-curvature="0" /><g
     id="g5"
     transform="matrix(0.99940047,0,0,1.4545429,0.2062824,-107.41035)"><g
       id="g7"><g
         id="g9"><g
           id="g11"><path
             d="m 297.156,394.956 c 0.518,4.06 1.193,8.109 2.008,12.109 0.814,3.994 1.768,7.94 2.846,11.803 1.077,3.856 2.278,7.631 3.587,11.284 1.308,3.65 2.725,7.182 4.236,10.558 0.443,0.986 0.894,1.96 1.353,2.921 0.459,0.96 0.927,1.906 1.403,2.839 0.477,0.933 0.961,1.852 1.455,2.755 0.494,0.904 0.996,1.793 1.508,2.667 L 42.066,299.763 c -0.407,-0.229 -0.824,-0.51 -1.256,-0.85 -0.432,-0.34 -0.877,-0.738 -1.34,-1.203 -0.463,-0.465 -0.943,-0.995 -1.444,-1.599 -0.501,-0.604 -1.022,-1.28 -1.568,-2.037 -0.812,-1.124 -1.656,-2.421 -2.52,-3.869 -0.864,-1.448 -1.745,-3.047 -2.63,-4.776 -0.885,-1.729 -1.772,-3.588 -2.648,-5.556 -0.876,-1.969 -1.739,-4.047 -2.576,-6.212 -0.841,-2.169 -1.657,-4.425 -2.439,-6.748 -0.783,-2.325 -1.531,-4.719 -2.236,-7.161 -0.706,-2.444 -1.368,-4.938 -1.979,-7.464 -0.61,-2.528 -1.169,-5.088 -1.665,-7.659 -0.667,-3.434 -1.189,-6.721 -1.575,-9.83 -0.387,-3.115 -0.637,-6.052 -0.758,-8.78 -0.122,-2.733 -0.114,-5.255 0.016,-7.536 0.129,-2.285 0.38,-4.326 0.746,-6.091 0.18,-0.884 0.389,-1.697 0.623,-2.438 0.234,-0.742 0.493,-1.411 0.772,-2.006 0.28,-0.596 0.581,-1.118 0.898,-1.565 0.318,-0.447 0.653,-0.819 1.001,-1.114 0.354,-0.295 0.714,-0.518 1.08,-0.671 0.366,-0.153 0.738,-0.239 1.117,-0.261 0.38,-0.022 0.767,0.02 1.161,0.12 0.395,0.1 0.798,0.259 1.211,0.472 l 278.838,144.787 c -0.671,0.807 -1.291,1.716 -1.859,2.719 -0.567,1.002 -1.084,2.1 -1.553,3.284 -0.468,1.183 -0.887,2.453 -1.26,3.805 -0.372,1.35 -0.697,2.78 -0.978,4.284 -0.383,2.081 -0.677,4.309 -0.878,6.67 -0.201,2.357 -0.309,4.849 -0.321,7.462 -0.012,2.609 0.072,5.341 0.256,8.183 0.184,2.836 0.467,5.785 0.854,8.833 z"
             id="path13"
             style="fill:#3f973e"
             inkscape:connector-curvature="0" /></g></g></g></g><g
     id="g15"
     transform="matrix(0.99940047,0,0,1.4545429,0.2062824,-107.41035)"
     style="stroke:#000000;stroke-opacity:1;stroke-width:9.49574019;stroke-miterlimit:4;stroke-dasharray:none"><g
       id="g17"
       style="stroke:#000000;stroke-opacity:1;stroke-width:9.49574019;stroke-miterlimit:4;stroke-dasharray:none"><g
         id="g19"
         style="stroke:#000000;stroke-opacity:1;stroke-width:9.49574019;stroke-miterlimit:4;stroke-dasharray:none"><g
           id="g21"
           style="stroke:#000000;stroke-opacity:1;stroke-width:9.49574019;stroke-miterlimit:4;stroke-dasharray:none"><path
             d="m 297.156,394.956 c 0.518,4.06 1.193,8.109 2.008,12.109 0.814,3.994 1.768,7.94 2.846,11.803 1.077,3.856 2.278,7.631 3.587,11.284 1.308,3.65 2.725,7.182 4.236,10.558 0.443,0.986 0.894,1.96 1.353,2.921 0.459,0.96 0.927,1.906 1.403,2.839 0.477,0.933 0.961,1.852 1.455,2.755 0.494,0.904 0.996,1.793 1.508,2.667 L 42.066,299.763 c -0.407,-0.229 -0.824,-0.51 -1.256,-0.85 -0.432,-0.34 -0.877,-0.738 -1.34,-1.203 -0.463,-0.465 -0.943,-0.995 -1.444,-1.599 -0.501,-0.604 -1.022,-1.28 -1.568,-2.037 -0.812,-1.124 -1.656,-2.421 -2.52,-3.869 -0.864,-1.448 -1.745,-3.047 -2.63,-4.776 -0.885,-1.729 -1.772,-3.588 -2.648,-5.556 -0.876,-1.969 -1.739,-4.047 -2.576,-6.212 -0.841,-2.169 -1.657,-4.425 -2.439,-6.748 -0.783,-2.325 -1.531,-4.719 -2.236,-7.161 -0.706,-2.444 -1.368,-4.938 -1.979,-7.464 -0.61,-2.528 -1.169,-5.088 -1.665,-7.659 -0.667,-3.434 -1.189,-6.721 -1.575,-9.83 -0.387,-3.115 -0.637,-6.052 -0.758,-8.78 -0.122,-2.733 -0.114,-5.255 0.016,-7.536 0.129,-2.285 0.38,-4.326 0.746,-6.091 0.18,-0.884 0.389,-1.697 0.623,-2.438 0.234,-0.742 0.493,-1.411 0.772,-2.006 0.28,-0.596 0.581,-1.118 0.898,-1.565 0.318,-0.447 0.653,-0.819 1.001,-1.114 0.354,-0.295 0.714,-0.518 1.08,-0.671 0.366,-0.153 0.738,-0.239 1.117,-0.261 0.38,-0.022 0.767,0.02 1.161,0.12 0.395,0.1 0.798,0.259 1.211,0.472 l 278.838,144.787 c -0.671,0.807 -1.291,1.716 -1.859,2.719 -0.567,1.002 -1.084,2.1 -1.553,3.284 -0.468,1.183 -0.887,2.453 -1.26,3.805 -0.372,1.35 -0.697,2.78 -0.978,4.284 -0.383,2.081 -0.677,4.309 -0.878,6.67 -0.201,2.357 -0.309,4.849 -0.321,7.462 -0.012,2.609 0.072,5.341 0.256,8.183 0.184,2.836 0.467,5.785 0.854,8.833 z"
             id="path23"
             style="fill:#ffffff;stroke:#000000;stroke-opacity:1;stroke-width:9.49574019;stroke-miterlimit:4;stroke-dasharray:none"
             inkscape:connector-curvature="0" /></g><path
           d="m 378.596,15.184 c -0.352,-0.131 -0.699,-0.229 -1.046,-0.289 -0.347,-0.06 -0.691,-0.084 -1.035,-0.068 -0.345,0.016 -0.688,0.071 -1.032,0.169 -0.343,0.098 -0.688,0.237 -1.032,0.422 -118.07,63.111 -236.129,126.219 -354.198,189.33 0.298,-0.159 0.6,-0.271 0.906,-0.338 0.307,-0.068 0.618,-0.091 0.934,-0.072 0.316,0.019 0.638,0.079 0.965,0.178 0.327,0.1 0.66,0.238 0.999,0.413 L 302.895,349.716 663.259,122.791 378.596,15.184 z"
           id="path25"
           style="fill:#3f973e;stroke:#000000;stroke-opacity:1;stroke-width:9.49574019;stroke-miterlimit:4;stroke-dasharray:none"
           inkscape:connector-curvature="0" /><path
           d="m 664.589,216.434 c -0.431,-0.807 -0.851,-1.628 -1.259,-2.464 -0.409,-0.836 -0.808,-1.687 -1.195,-2.551 -0.388,-0.864 -0.766,-1.743 -1.133,-2.635 -1.252,-3.051 -2.388,-6.262 -3.396,-9.6 -1.008,-3.34 -1.887,-6.808 -2.625,-10.368 -0.738,-3.565 -1.336,-7.225 -1.778,-10.945 -0.444,-3.726 -0.732,-7.514 -0.854,-11.33 -0.088,-2.864 -0.076,-5.645 0.03,-8.33 0.105,-2.689 0.307,-5.284 0.597,-7.773 0.291,-2.493 0.671,-4.879 1.135,-7.148 0.465,-2.273 1.015,-4.427 1.644,-6.453 0.458,-1.464 0.956,-2.862 1.496,-4.189 0.539,-1.329 1.12,-2.585 1.743,-3.764 0.624,-1.18 1.29,-2.282 2,-3.299 0.71,-1.019 1.465,-1.952 2.264,-2.795 L 302.894,349.715 c -0.671,0.807 -1.291,1.716 -1.859,2.719 -0.567,1.002 -1.084,2.1 -1.553,3.284 -0.468,1.183 -0.887,2.453 -1.26,3.805 -0.372,1.35 -0.697,2.78 -0.978,4.284 -0.383,2.081 -0.677,4.309 -0.878,6.67 -0.201,2.357 -0.309,4.849 -0.321,7.462 -0.012,2.609 0.072,5.341 0.256,8.183 0.184,2.838 0.467,5.786 0.854,8.834 0.518,4.06 1.193,8.109 2.008,12.109 0.814,3.994 1.768,7.94 2.846,11.803 1.077,3.856 2.278,7.631 3.587,11.284 1.308,3.65 2.725,7.182 4.236,10.558 0.443,0.986 0.894,1.96 1.353,2.921 0.459,0.96 0.927,1.906 1.403,2.839 0.477,0.933 0.961,1.852 1.455,2.755 0.494,0.904 0.996,1.793 1.508,2.667 L 665.913,218.808 c -0.452,-0.776 -0.893,-1.568 -1.324,-2.374 z"
           id="path27"
           style="fill:#e2e3e4;stroke:#000000;stroke-opacity:1;stroke-width:9.49574019;stroke-miterlimit:4;stroke-dasharray:none"
           inkscape:connector-curvature="0" /></g></g></g><path
     d="m 682.84778,60.054078 c -0.24786,-1.016725 -0.59965,-2.002905 -1.02739,-2.903267 -0.42974,-0.900363 -0.93644,-1.714907 -1.4941,-2.391269 -0.55767,-0.676362 -1.1693,-1.213089 -1.80692,-1.557815 L 386.67345,-104.88527 c -0.76554,-0.41454 -1.5111,-0.70254 -2.23366,-0.87563 -0.72357,-0.17164 -1.42415,-0.22837 -2.10074,-0.17746 -0.6766,0.0509 -1.32821,0.20946 -1.95383,0.464 -0.62463,0.25455 -1.22427,0.60655 -1.79393,1.04727 C 254.97145,-9.0018004 131.35261,86.417668 7.7327674,181.84441 c 0.4877074,-0.37673 1.0103938,-0.656 1.5640617,-0.82909 0.5536679,-0.17309 1.1413149,-0.23709 1.7599439,-0.18473 0.618629,0.0509 1.269239,0.21964 1.948831,0.51491 0.680592,0.29527 1.390166,0.71855 2.128723,1.27564 L 300.72501,398.56839 c 0.63162,0.47855 1.25324,1.15636 1.83589,1.97382 0.58265,0.81745 1.12633,1.77599 1.60304,2.81163 0.47672,1.03563 0.88547,2.14836 1.19828,3.27854 0.31282,1.12872 0.53069,2.27345 0.62463,3.37308 0.05,0.58909 0.062,1.13455 0.04,1.63345 -0.023,0.49891 -0.0799,0.94982 -0.16889,1.35273 -0.089,0.40291 -0.20888,0.75345 -0.35779,1.05163 -0.14791,0.29673 -0.3258,0.53964 -0.52768,0.72582 125.61764,-115.6478 251.22429,-231.28105 376.84293,-346.928844 0.22887,-0.210908 0.43674,-0.472726 0.61763,-0.779635 0.1809,-0.306908 0.3358,-0.661817 0.46073,-1.058907 0.12492,-0.39709 0.22087,-0.834908 0.28183,-1.311998 0.062,-0.47709 0.0909,-0.991998 0.082,-1.541815 -0.016,-1.026907 -0.1619,-2.075633 -0.40975,-3.093813 z"
     id="path29"
     style="fill:#ca521f;stroke:#000000;stroke-width:11.44885;stroke-opacity:1;stroke-miterlimit:4;stroke-dasharray:none"
     inkscape:connector-curvature="0" /><g
     id="g31"
     transform="matrix(0.99940047,0,0,1.4545429,0.2062824,-107.41035)"
     style="stroke:#000000;stroke-opacity:1;stroke-width:9.49574019;stroke-miterlimit:4;stroke-dasharray:none"><path
       d="m 14.937,199.397 285.762,148.464 c 0.632,0.329 1.254,0.795 1.837,1.357 0.583,0.562 1.127,1.221 1.604,1.933 0.477,0.712 0.886,1.477 1.199,2.254 0.313,0.776 0.531,1.563 0.625,2.319 0.094,0.757 0.055,1.409 -0.096,1.942 -0.151,0.533 -0.413,0.946 -0.766,1.224 -0.353,0.277 -0.796,0.419 -1.309,0.408 -0.513,-0.01 -1.095,-0.172 -1.726,-0.503 L 16.918,209.515 c -0.409,-0.213 -0.81,-0.372 -1.201,-0.473 -0.391,-0.101 -0.775,-0.144 -1.151,-0.123 -0.375,0.021 -0.744,0.105 -1.105,0.257 -0.362,0.152 -0.717,0.372 -1.067,0.665 -0.344,0.292 -0.675,0.662 -0.988,1.106 -0.313,0.444 -0.609,0.963 -0.884,1.555 -0.274,0.592 -0.528,1.257 -0.757,1.995 -0.229,0.737 -0.433,1.545 -0.608,2.425 -0.355,1.756 -0.597,3.787 -0.716,6.061 -0.12,2.27 -0.118,4.78 0.012,7.5 0.13,2.715 0.389,5.639 0.783,8.742 0.394,3.096 0.924,6.369 1.597,9.789 0.501,2.561 1.064,5.11 1.678,7.628 0.614,2.516 1.279,5.001 1.988,7.437 0.708,2.433 1.458,4.817 2.242,7.134 0.783,2.314 1.601,4.562 2.442,6.725 0.836,2.157 1.7,4.228 2.575,6.189 0.875,1.962 1.761,3.814 2.644,5.539 0.883,1.723 1.763,3.317 2.623,4.761 0.861,1.444 1.703,2.737 2.511,3.859 0.544,0.754 1.063,1.43 1.562,2.031 0.499,0.603 0.977,1.132 1.437,1.596 0.46,0.464 0.904,0.861 1.333,1.201 0.429,0.34 0.843,0.62 1.247,0.85 l 279.715,156.76 c 0.617,0.346 1.223,0.82 1.791,1.381 0.567,0.562 1.097,1.21 1.56,1.904 0.463,0.693 0.859,1.434 1.163,2.179 0.303,0.744 0.513,1.493 0.601,2.205 0.088,0.712 0.047,1.319 -0.103,1.808 -0.15,0.489 -0.408,0.859 -0.754,1.097 -0.346,0.238 -0.781,0.342 -1.282,0.301 -0.501,-0.041 -1.07,-0.229 -1.686,-0.576 L 36.957,313.536 c -0.897,-0.506 -1.8,-1.127 -2.701,-1.845 -0.9,-0.719 -1.799,-1.535 -2.689,-2.432 -0.889,-0.897 -1.769,-1.875 -2.633,-2.918 -0.863,-1.042 -1.71,-2.149 -2.533,-3.305 -0.831,-1.161 -1.645,-2.375 -2.443,-3.637 -0.798,-1.262 -1.581,-2.572 -2.348,-3.927 -0.768,-1.354 -1.52,-2.753 -2.257,-4.191 -0.737,-1.439 -1.46,-2.919 -2.168,-4.434 -1.412,-3.031 -2.77,-6.215 -4.058,-9.517 -1.289,-3.306 -2.509,-6.73 -3.645,-10.242 -1.137,-3.516 -2.189,-7.119 -3.143,-10.776 -0.955,-3.663 -1.812,-7.382 -2.553,-11.12 -0.554,-2.807 -1.023,-5.527 -1.41,-8.152 -0.387,-2.629 -0.691,-5.163 -0.914,-7.589 -0.223,-2.43 -0.364,-4.753 -0.426,-6.958 -0.062,-2.208 -0.043,-4.299 0.054,-6.259 0.103,-1.959 0.28,-3.794 0.538,-5.488 0.258,-1.696 0.597,-3.251 1.021,-4.648 0.425,-1.399 0.935,-2.639 1.537,-3.704 0.603,-1.066 1.297,-1.957 2.088,-2.655 0.523,-0.463 1.098,-0.833 1.724,-1.1 0.626,-0.267 1.303,-0.428 2.028,-0.474 0.726,-0.045 1.499,0.026 2.318,0.227 0.819,0.203 1.684,0.533 2.593,1.005 z"
       id="path33"
       style="fill:#d5804b;stroke:#000000;stroke-width:9.49574019;stroke-opacity:1;stroke-miterlimit:4;stroke-dasharray:none"
       inkscape:connector-curvature="0" /></g></svg>