<?xml version="1.0" encoding="UTF-8" standalone="no"?>
<!-- Created with Inkscape (http://www.inkscape.org/) -->

<svg
   xmlns:dc="http://purl.org/dc/elements/1.1/"
   xmlns:cc="http://creativecommons.org/ns#"
   xmlns:rdf="http://www.w3.org/1999/02/22-rdf-syntax-ns#"
   xmlns:svg="http://www.w3.org/2000/svg"
   xmlns="http://www.w3.org/2000/svg"
   xmlns:sodipodi="http://sodipodi.sourceforge.net/DTD/sodipodi-0.dtd"
   xmlns:inkscape="http://www.inkscape.org/namespaces/inkscape"
   width="60"
   height="60"
   id="svg2"
   sodipodi:version="0.32"
   inkscape:version="0.48.1 r9760"
   version="1.0"
   sodipodi:docname="Point_interrogation.svg"
   inkscape:output_extension="org.inkscape.output.svg.inkscape"
   inkscape:export-filename="/home/gaston/GNU/is/great/Point_interrogation.png"
   inkscape:export-xdpi="90"
   inkscape:export-ydpi="90">
  <defs
     id="defs4">
    <inkscape:perspective
       sodipodi:type="inkscape:persp3d"
       inkscape:vp_x="0 : 526.18109 : 1"
       inkscape:vp_y="0 : 1000 : 0"
       inkscape:vp_z="744.09448 : 526.18109 : 1"
       inkscape:persp3d-origin="372.04724 : 350.78739 : 1"
       id="perspective10" />
    <inkscape:perspective
       id="perspective2447"
       inkscape:persp3d-origin="372.04724 : 350.78739 : 1"
       inkscape:vp_z="744.09448 : 526.18109 : 1"
       inkscape:vp_y="0 : 1000 : 0"
       inkscape:vp_x="0 : 526.18109 : 1"
       sodipodi:type="inkscape:persp3d" />
  </defs>
  <sodipodi:namedview
     id="base"
     pagecolor="#ffffff"
     bordercolor="#666666"
     borderopacity="1.0"
     inkscape:pageopacity="0.0"
     inkscape:pageshadow="2"
     inkscape:zoom="13.083333"
     inkscape:cx="30"
     inkscape:cy="30"
     inkscape:document-units="px"
     inkscape:current-layer="layer2"
     showgrid="false"
     inkscape:window-width="1680"
     inkscape:window-height="1002"
     inkscape:window-x="0"
     inkscape:window-y="0"
     inkscape:window-maximized="0" />
  <metadata
     id="metadata7">
    <rdf:RDF>
      <cc:Work
         rdf:about="">
        <dc:format>image/svg+xml</dc:format>
        <dc:type
           rdf:resource="http://purl.org/dc/dcmitype/StillImage" />
        <dc:title />
      </cc:Work>
    </rdf:RDF>
  </metadata>
  <g
     inkscape:groupmode="layer"
     id="layer4"
     inkscape:label="Calque_3" />
  <g
     inkscape:groupmode="layer"
     id="layer3"
     inkscape:label="Calque_2"
     style="display:inline" />
  <g
     inkscape:groupmode="layer"
     id="layer2"
     inkscape:label="calque_1"
     style="display:inline">
    <g
       id="g3274"
       transform="matrix(0.13674425,0,0,0.20452978,-44.907581,-59.501101)"
       style="fill:#008000;fill-opacity:1;stroke:#000000;stroke-width:8.11714363;stroke-miterlimit:4;stroke-opacity:1;stroke-dasharray:none">
      <path
         inkscape:connector-curvature="0"
         sodipodi:nodetypes="cczccccccc"
         id="path3264"
         d="m 608.11183,394.5817 c -4.04061,0 -58.58885,7.07107 -58.58885,7.07107 2.43785,-51.6794 43.35283,-96.84058 118.18785,-93.94419 74.83502,2.89639 165.14658,113.60376 8.08122,111.11678 -11.66344,12.39711 -15.97877,38.24214 -20.20305,41.41626 -20.95279,-11.15647 -38.21744,-13.21617 -59.599,-17.1726 8.78353,-12.21942 18.6621,-24.78175 23.23351,-31.31472 10.57356,-15.11059 26.5657,-17.60726 42.42641,-19.1929 47.92575,-6.60555 17.75828,-32.79862 -20.54968,-37.07978 -35.68662,-3.67694 -51.7818,17.47344 -32.98841,39.10008 z"
         style="fill:#008000;fill-opacity:1;fill-rule:evenodd;stroke:#000000;stroke-width:8.11714363;stroke-linecap:round;stroke-linejoin:round;stroke-miterlimit:4;stroke-opacity:1;stroke-dasharray:none" />
      <path
         inkscape:connector-curvature="0"
         sodipodi:nodetypes="csssc"
         id="path3266"
         d="m 590.35714,475.8802 c 16.75354,-1.36284 51.19438,7.4584 50,8.21428 -2.62222,1.65951 -16.1826,39.12961 -18.57143,39.64285 -1.25896,0.27049 -40.98725,-0.27044 -42.49999,-0.35713 -2.27312,-0.13027 7.73401,-51.19456 11.07142,-47.5 z"
         style="fill:#008000;fill-opacity:1;fill-rule:evenodd;stroke:#000000;stroke-width:8.11714363;stroke-linecap:butt;stroke-linejoin:miter;stroke-miterlimit:4;stroke-opacity:1;stroke-dasharray:none" />
    </g>
    <g
       id="g3255"
       style="fill:#000000;fill-opacity:1;stroke:#000000;stroke-width:1.62342882;stroke-miterlimit:4;stroke-opacity:1;stroke-dasharray:none;display:inline"
       transform="matrix(0.13674425,0,0,0.20452978,-44.907581,-59.501101)">
      <path
         inkscape:connector-curvature="0"
         sodipodi:nodetypes="ccccc"
         id="path3251"
         d="m 549.52298,285.48523 c 24.9171,3.82617 49.8342,3.21038 70.71069,16.16244 -20.92728,45.63792 -31.8197,99.37373 -42.42641,142.43151 l -47.47717,-2.02031 c 4.00839,-52.19121 7.36553,-104.38243 19.19289,-156.57364 z"
         style="fill:#000000;fill-opacity:1;fill-rule:evenodd;stroke:#000000;stroke-width:1.62342882;stroke-linecap:butt;stroke-linejoin:miter;stroke-miterlimit:4;stroke-opacity:1;stroke-dasharray:none" />
      <path
         inkscape:connector-curvature="0"
         sodipodi:nodetypes="ccccc"
         id="path3253"
         d="m 517.10222,472.16719 c 26.41287,-2.78452 47.75603,3.26786 68.87539,9.71034 0.94812,14.29202 7.77745,25.41611 -6.07725,48.55169 -25.65251,4.12558 -38.03321,3.92842 -54.69515,9.71034 -8.9019,-19.05457 -6.58991,-44.6247 -8.10299,-67.97237 z"
         style="fill:#000000;fill-opacity:1;fill-rule:evenodd;stroke:#000000;stroke-width:1.5196538;stroke-linecap:butt;stroke-linejoin:miter;stroke-miterlimit:4;stroke-opacity:1;stroke-dasharray:none" />
    </g>
    <g
       id="g3259"
       style="fill:#ee2828;fill-opacity:1;stroke:#000000;stroke-width:8.11714363;stroke-miterlimit:4;stroke-opacity:1;stroke-dasharray:none"
       transform="matrix(0.13674425,0,0,0.20452978,-44.907581,-59.501101)">
      <path
         inkscape:connector-curvature="0"
         sodipodi:nodetypes="ccssccssc"
         id="path2454"
         d="m 419.2133,425.89643 c 0,0 -54.35308,38.39697 -62.39486,43.26324 -10.88917,-14.93878 -27.20732,-34.87229 -22.87749,-74.34745 12.5728,-114.6266 350.39774,-111.91388 209.52112,6.84055 -31.22784,26.32406 -26.90793,32.46873 -21.21321,54.54824 l -58.58884,27.27412 c -14.06976,-26.03978 -14.88692,-49.82371 9.0271,-72.89378 35.05933,-33.82206 62.94119,-79.35222 -44.38244,-32.16209 -28.56792,12.56129 -34.6204,30.78251 -9.09138,47.47717 z"
         style="fill:#ee2828;fill-opacity:1;fill-rule:evenodd;stroke:#000000;stroke-width:8.11714363;stroke-linecap:butt;stroke-linejoin:miter;stroke-miterlimit:4;stroke-opacity:1;stroke-dasharray:none" />
      <path
         inkscape:connector-curvature="0"
         sodipodi:nodetypes="ccccc"
         id="path3248"
         d="m 466.83117,509.26118 c 19.16039,-7.80703 39.88994,-13.26033 62.85714,-15.35714 5.56465,13.26527 10.82214,27.04247 13.57143,45 -19.10566,9.76487 -37.08331,21.78577 -54.28572,35.35714 -17.66069,-18.03852 -20.37094,-41.35367 -22.14285,-65 z"
         style="fill:#ee2828;fill-opacity:1;fill-rule:evenodd;stroke:#000000;stroke-width:8.11714363;stroke-linecap:butt;stroke-linejoin:miter;stroke-miterlimit:4;stroke-opacity:1;stroke-dasharray:none;display:inline" />
    </g>
  </g>
</svg>
