<?xml version="1.0" encoding="UTF-8" standalone="no"?>
<!-- Created with Inkscape (http://www.inkscape.org/) -->

<svg
   xmlns:dc="http://purl.org/dc/elements/1.1/"
   xmlns:cc="http://creativecommons.org/ns#"
   xmlns:rdf="http://www.w3.org/1999/02/22-rdf-syntax-ns#"
   xmlns:svg="http://www.w3.org/2000/svg"
   xmlns="http://www.w3.org/2000/svg"
   xmlns:xlink="http://www.w3.org/1999/xlink"
   xmlns:sodipodi="http://sodipodi.sourceforge.net/DTD/sodipodi-0.dtd"
   xmlns:inkscape="http://www.inkscape.org/namespaces/inkscape"
   height="60"
   width="60"
   id="svg13645"
   sodipodi:version="0.32"
   inkscape:version="0.48.1 r9760"
   version="1.0"
   sodipodi:docname="n_kamil_Money_-_banknotes_and_coin.svg"
   inkscape:output_extension="org.inkscape.output.svg.inkscape"
   sodipodi:modified="true">
  <defs
     id="defs13647">
    <radialGradient
       inkscape:collect="always"
       xlink:href="#linearGradient13387"
       id="radialGradient13508"
       gradientUnits="userSpaceOnUse"
       gradientTransform="matrix(1,0,0,0.360515,0,328.0179)"
       cx="179.04955"
       cy="512.94073"
       fx="179.04955"
       fy="512.94073"
       r="58.841385" />
    <radialGradient
       inkscape:collect="always"
       xlink:href="#linearGradient13387"
       id="radialGradient13470"
       gradientUnits="userSpaceOnUse"
       gradientTransform="matrix(1,0,0,0.360515,0,328.0179)"
       cx="179.04955"
       cy="512.94073"
       fx="179.04955"
       fy="512.94073"
       r="58.841385" />
    <linearGradient
       inkscape:collect="always"
       xlink:href="#linearGradient2231"
       id="linearGradient13270"
       gradientUnits="userSpaceOnUse"
       x1="162.63963"
       y1="585.54541"
       x2="60.351536"
       y2="555.1095" />
    <linearGradient
       inkscape:collect="always"
       xlink:href="#linearGradient5073"
       id="linearGradient13268"
       gradientUnits="userSpaceOnUse"
       x1="69.839012"
       y1="522.38086"
       x2="81.11171"
       y2="575.41388" />
    <linearGradient
       inkscape:collect="always"
       xlink:href="#linearGradient12263"
       id="linearGradient13266"
       gradientUnits="userSpaceOnUse"
       x1="140.23151"
       y1="605.49329"
       x2="0.96580404"
       y2="551.651" />
    <linearGradient
       inkscape:collect="always"
       xlink:href="#linearGradient7800"
       id="linearGradient13264"
       gradientUnits="userSpaceOnUse"
       x1="144.64285"
       y1="578.43359"
       x2="5.928566"
       y2="579.86218" />
    <linearGradient
       inkscape:collect="always"
       xlink:href="#linearGradient9592"
       id="linearGradient13262"
       gradientUnits="userSpaceOnUse"
       x1="146.42857"
       y1="578.07648"
       x2="5.9452562"
       y2="577.43024" />
    <linearGradient
       inkscape:collect="always"
       xlink:href="#linearGradient5073"
       id="linearGradient5982"
       gradientUnits="userSpaceOnUse"
       x1="272.23611"
       y1="419.50162"
       x2="275.25827"
       y2="467.48386" />
    <linearGradient
       id="linearGradient4162">
      <stop
         style="stop-color:green;stop-opacity:1;"
         offset="0"
         id="stop4164" />
      <stop
         style="stop-color:yellow;stop-opacity:0"
         offset="1"
         id="stop4166" />
    </linearGradient>
    <linearGradient
       inkscape:collect="always"
       xlink:href="#linearGradient4162"
       id="linearGradient5980"
       gradientUnits="userSpaceOnUse"
       x1="266.68027"
       y1="462.43311"
       x2="344.9671"
       y2="425.56253" />
    <radialGradient
       inkscape:collect="always"
       xlink:href="#linearGradient13387"
       id="radialGradient13474"
       gradientUnits="userSpaceOnUse"
       gradientTransform="matrix(1,0,0,0.360515,0,328.0179)"
       cx="179.04955"
       cy="512.94073"
       fx="179.04955"
       fy="512.94073"
       r="58.841385" />
    <linearGradient
       inkscape:collect="always"
       xlink:href="#linearGradient13387"
       id="linearGradient13393"
       x1="248.39285"
       y1="501.64789"
       x2="141.07143"
       y2="468.79074"
       gradientUnits="userSpaceOnUse" />
    <linearGradient
       inkscape:collect="always"
       xlink:href="#linearGradient2231"
       id="linearGradient13361"
       gradientUnits="userSpaceOnUse"
       x1="162.63963"
       y1="585.54541"
       x2="60.351536"
       y2="555.1095"
       gradientTransform="matrix(0.513958,0,0,0.513958,169.5378,181.1977)" />
    <linearGradient
       inkscape:collect="always"
       xlink:href="#linearGradient5073"
       id="linearGradient13364"
       gradientUnits="userSpaceOnUse"
       x1="69.839012"
       y1="522.38086"
       x2="81.11171"
       y2="575.41388"
       gradientTransform="matrix(0.513958,0,0,0.513958,169.5378,181.1977)" />
    <linearGradient
       inkscape:collect="always"
       id="linearGradient13399">
      <stop
         style="stop-color:black;stop-opacity:1;"
         offset="0"
         id="stop13401" />
      <stop
         style="stop-color:black;stop-opacity:0;"
         offset="1"
         id="stop13403" />
    </linearGradient>
    <linearGradient
       inkscape:collect="always"
       xlink:href="#linearGradient13399"
       id="linearGradient13379"
       x1="115.3679"
       y1="627.10693"
       x2="-83.017815"
       y2="550.66876"
       gradientUnits="userSpaceOnUse" />
    <linearGradient
       inkscape:collect="always"
       xlink:href="#linearGradient12263"
       id="linearGradient13318"
       gradientUnits="userSpaceOnUse"
       x1="140.23151"
       y1="605.49329"
       x2="0.96580404"
       y2="551.651" />
    <linearGradient
       inkscape:collect="always"
       xlink:href="#linearGradient7800"
       id="linearGradient13316"
       gradientUnits="userSpaceOnUse"
       x1="144.64285"
       y1="578.43359"
       x2="5.928566"
       y2="579.86218" />
    <linearGradient
       inkscape:collect="always"
       xlink:href="#linearGradient9592"
       id="linearGradient13314"
       gradientUnits="userSpaceOnUse"
       x1="146.42857"
       y1="578.07648"
       x2="5.9452562"
       y2="577.43024" />
    <linearGradient
       inkscape:collect="always"
       id="linearGradient13387">
      <stop
         style="stop-color:black;stop-opacity:1;"
         offset="0"
         id="stop13389" />
      <stop
         style="stop-color:black;stop-opacity:0;"
         offset="1"
         id="stop13391" />
    </linearGradient>
    <radialGradient
       inkscape:collect="always"
       xlink:href="#linearGradient13387"
       id="radialGradient13478"
       gradientUnits="userSpaceOnUse"
       gradientTransform="matrix(1,0,0,0.360515,0,328.0179)"
       cx="179.04955"
       cy="512.94073"
       fx="179.04955"
       fy="512.94073"
       r="58.841385" />
    <linearGradient
       id="linearGradient2231">
      <stop
         style="stop-color:black;stop-opacity:0.30275229;"
         offset="0"
         id="stop2233" />
      <stop
         style="stop-color:black;stop-opacity:0;"
         offset="1"
         id="stop2235" />
    </linearGradient>
    <linearGradient
       inkscape:collect="always"
       xlink:href="#linearGradient2231"
       id="linearGradient13342"
       gradientUnits="userSpaceOnUse"
       x1="162.63963"
       y1="585.54541"
       x2="60.351536"
       y2="555.1095" />
    <linearGradient
       inkscape:collect="always"
       id="linearGradient5073">
      <stop
         style="stop-color:white;stop-opacity:1;"
         offset="0"
         id="stop5075" />
      <stop
         style="stop-color:white;stop-opacity:0;"
         offset="1"
         id="stop5077" />
    </linearGradient>
    <linearGradient
       inkscape:collect="always"
       xlink:href="#linearGradient5073"
       id="linearGradient13340"
       gradientUnits="userSpaceOnUse"
       x1="69.839012"
       y1="522.38086"
       x2="81.11171"
       y2="575.41388" />
    <linearGradient
       id="linearGradient12263">
      <stop
         id="stop12265"
         offset="0"
         style="stop-color:#ff8915;stop-opacity:1" />
      <stop
         id="stop12267"
         offset="1"
         style="stop-color:yellow;stop-opacity:1;" />
    </linearGradient>
    <linearGradient
       inkscape:collect="always"
       xlink:href="#linearGradient12263"
       id="linearGradient13338"
       gradientUnits="userSpaceOnUse"
       x1="140.23151"
       y1="605.49329"
       x2="0.96580404"
       y2="551.651" />
    <linearGradient
       id="linearGradient7800">
      <stop
         style="stop-color:#f60;stop-opacity:1;"
         offset="0"
         id="stop7802" />
      <stop
         style="stop-color:yellow;stop-opacity:1;"
         offset="1"
         id="stop7804" />
    </linearGradient>
    <linearGradient
       inkscape:collect="always"
       xlink:href="#linearGradient7800"
       id="linearGradient13336"
       gradientUnits="userSpaceOnUse"
       x1="144.64285"
       y1="578.43359"
       x2="5.928566"
       y2="579.86218" />
    <linearGradient
       id="linearGradient9592">
      <stop
         id="stop9594"
         offset="0"
         style="stop-color:#cd5200;stop-opacity:1" />
      <stop
         id="stop9596"
         offset="1"
         style="stop-color:#caca00;stop-opacity:1" />
    </linearGradient>
    <linearGradient
       inkscape:collect="always"
       xlink:href="#linearGradient9592"
       id="linearGradient13334"
       gradientUnits="userSpaceOnUse"
       x1="146.42857"
       y1="578.07648"
       x2="5.9452562"
       y2="577.43024" />
    <radialGradient
       inkscape:collect="always"
       xlink:href="#linearGradient13387"
       id="radialGradient13821"
       gradientUnits="userSpaceOnUse"
       gradientTransform="matrix(1,0,0,0.360515,0,328.0179)"
       cx="179.04955"
       cy="512.94073"
       fx="179.04955"
       fy="512.94073"
       r="58.841385" />
    <linearGradient
       inkscape:collect="always"
       xlink:href="#linearGradient9592"
       id="linearGradient13823"
       gradientUnits="userSpaceOnUse"
       x1="146.42857"
       y1="578.07648"
       x2="5.9452562"
       y2="577.43024" />
    <linearGradient
       inkscape:collect="always"
       xlink:href="#linearGradient7800"
       id="linearGradient13825"
       gradientUnits="userSpaceOnUse"
       x1="144.64285"
       y1="578.43359"
       x2="5.928566"
       y2="579.86218" />
    <linearGradient
       inkscape:collect="always"
       xlink:href="#linearGradient12263"
       id="linearGradient13827"
       gradientUnits="userSpaceOnUse"
       x1="140.23151"
       y1="605.49329"
       x2="0.96580404"
       y2="551.651" />
    <linearGradient
       inkscape:collect="always"
       xlink:href="#linearGradient5073"
       id="linearGradient13829"
       gradientUnits="userSpaceOnUse"
       x1="69.839012"
       y1="522.38086"
       x2="81.11171"
       y2="575.41388" />
    <linearGradient
       inkscape:collect="always"
       xlink:href="#linearGradient2231"
       id="linearGradient13831"
       gradientUnits="userSpaceOnUse"
       x1="162.63963"
       y1="585.54541"
       x2="60.351536"
       y2="555.1095" />
    <linearGradient
       inkscape:collect="always"
       xlink:href="#linearGradient4162"
       id="linearGradient13833"
       gradientUnits="userSpaceOnUse"
       x1="266.68027"
       y1="462.43311"
       x2="344.9671"
       y2="425.56253" />
    <linearGradient
       inkscape:collect="always"
       xlink:href="#linearGradient5073"
       id="linearGradient13835"
       gradientUnits="userSpaceOnUse"
       x1="272.23611"
       y1="419.50162"
       x2="275.25827"
       y2="467.48386" />
    <radialGradient
       inkscape:collect="always"
       xlink:href="#linearGradient13387"
       id="radialGradient13837"
       gradientUnits="userSpaceOnUse"
       gradientTransform="matrix(1,0,0,0.360515,0,328.0179)"
       cx="179.04955"
       cy="512.94073"
       fx="179.04955"
       fy="512.94073"
       r="58.841385" />
    <linearGradient
       inkscape:collect="always"
       xlink:href="#linearGradient9592"
       id="linearGradient13839"
       gradientUnits="userSpaceOnUse"
       x1="146.42857"
       y1="578.07648"
       x2="5.9452562"
       y2="577.43024" />
    <linearGradient
       inkscape:collect="always"
       xlink:href="#linearGradient7800"
       id="linearGradient13841"
       gradientUnits="userSpaceOnUse"
       x1="144.64285"
       y1="578.43359"
       x2="5.928566"
       y2="579.86218" />
    <linearGradient
       inkscape:collect="always"
       xlink:href="#linearGradient12263"
       id="linearGradient13843"
       gradientUnits="userSpaceOnUse"
       x1="140.23151"
       y1="605.49329"
       x2="0.96580404"
       y2="551.651" />
    <linearGradient
       inkscape:collect="always"
       xlink:href="#linearGradient13399"
       id="linearGradient13845"
       gradientUnits="userSpaceOnUse"
       x1="115.3679"
       y1="627.10693"
       x2="-83.017815"
       y2="550.66876" />
    <linearGradient
       inkscape:collect="always"
       xlink:href="#linearGradient5073"
       id="linearGradient13847"
       gradientUnits="userSpaceOnUse"
       gradientTransform="matrix(0.513958,0,0,0.513958,169.5378,181.1977)"
       x1="69.839012"
       y1="522.38086"
       x2="81.11171"
       y2="575.41388" />
    <linearGradient
       inkscape:collect="always"
       xlink:href="#linearGradient2231"
       id="linearGradient13849"
       gradientUnits="userSpaceOnUse"
       gradientTransform="matrix(0.513958,0,0,0.513958,169.5378,181.1977)"
       x1="162.63963"
       y1="585.54541"
       x2="60.351536"
       y2="555.1095" />
    <linearGradient
       inkscape:collect="always"
       xlink:href="#linearGradient13387"
       id="linearGradient13851"
       gradientUnits="userSpaceOnUse"
       x1="248.39285"
       y1="501.64789"
       x2="141.07143"
       y2="468.79074" />
    <radialGradient
       inkscape:collect="always"
       xlink:href="#linearGradient13387"
       id="radialGradient13853"
       gradientUnits="userSpaceOnUse"
       gradientTransform="matrix(1,0,0,0.360515,0,328.0179)"
       cx="179.04955"
       cy="512.94073"
       fx="179.04955"
       fy="512.94073"
       r="58.841385" />
    <linearGradient
       inkscape:collect="always"
       xlink:href="#linearGradient9592"
       id="linearGradient13855"
       gradientUnits="userSpaceOnUse"
       x1="146.42857"
       y1="578.07648"
       x2="5.9452562"
       y2="577.43024" />
    <linearGradient
       inkscape:collect="always"
       xlink:href="#linearGradient7800"
       id="linearGradient13857"
       gradientUnits="userSpaceOnUse"
       x1="144.64285"
       y1="578.43359"
       x2="5.928566"
       y2="579.86218" />
    <linearGradient
       inkscape:collect="always"
       xlink:href="#linearGradient12263"
       id="linearGradient13859"
       gradientUnits="userSpaceOnUse"
       x1="140.23151"
       y1="605.49329"
       x2="0.96580404"
       y2="551.651" />
    <linearGradient
       inkscape:collect="always"
       xlink:href="#linearGradient5073"
       id="linearGradient13861"
       gradientUnits="userSpaceOnUse"
       x1="69.839012"
       y1="522.38086"
       x2="81.11171"
       y2="575.41388" />
    <linearGradient
       inkscape:collect="always"
       xlink:href="#linearGradient2231"
       id="linearGradient13863"
       gradientUnits="userSpaceOnUse"
       x1="162.63963"
       y1="585.54541"
       x2="60.351536"
       y2="555.1095" />
    <linearGradient
       inkscape:collect="always"
       xlink:href="#linearGradient5073"
       id="linearGradient13866"
       gradientUnits="userSpaceOnUse"
       x1="272.23611"
       y1="419.50162"
       x2="275.25827"
       y2="467.48386"
       gradientTransform="matrix(2.5902205,0,0,2.5902205,-636.99525,-1186.0149)" />
    <linearGradient
       inkscape:collect="always"
       xlink:href="#linearGradient4162"
       id="linearGradient13869"
       gradientUnits="userSpaceOnUse"
       x1="266.68027"
       y1="462.43311"
       x2="344.9671"
       y2="425.56253"
       gradientTransform="matrix(2.5902205,0,0,2.5902205,-636.99525,-1186.0149)" />
    <linearGradient
       inkscape:collect="always"
       xlink:href="#linearGradient9592"
       id="linearGradient3131"
       gradientUnits="userSpaceOnUse"
       x1="146.42857"
       y1="578.07648"
       x2="5.9452562"
       y2="577.43024" />
    <linearGradient
       inkscape:collect="always"
       xlink:href="#linearGradient7800"
       id="linearGradient3133"
       gradientUnits="userSpaceOnUse"
       x1="144.64285"
       y1="578.43359"
       x2="5.928566"
       y2="579.86218" />
    <linearGradient
       inkscape:collect="always"
       xlink:href="#linearGradient12263"
       id="linearGradient3135"
       gradientUnits="userSpaceOnUse"
       x1="140.23151"
       y1="605.49329"
       x2="0.96580404"
       y2="551.651" />
    <linearGradient
       inkscape:collect="always"
       xlink:href="#linearGradient5073"
       id="linearGradient3137"
       gradientUnits="userSpaceOnUse"
       x1="69.839012"
       y1="522.38086"
       x2="81.11171"
       y2="575.41388" />
    <linearGradient
       inkscape:collect="always"
       xlink:href="#linearGradient2231"
       id="linearGradient3139"
       gradientUnits="userSpaceOnUse"
       x1="162.63963"
       y1="585.54541"
       x2="60.351536"
       y2="555.1095" />
    <linearGradient
       inkscape:collect="always"
       xlink:href="#linearGradient4162"
       id="linearGradient3141"
       gradientUnits="userSpaceOnUse"
       gradientTransform="matrix(2.5902205,0,0,2.5902205,-636.99525,-1186.0149)"
       x1="266.68027"
       y1="462.43311"
       x2="344.9671"
       y2="425.56253" />
    <linearGradient
       inkscape:collect="always"
       xlink:href="#linearGradient5073"
       id="linearGradient3143"
       gradientUnits="userSpaceOnUse"
       gradientTransform="matrix(2.5902205,0,0,2.5902205,-636.99525,-1186.0149)"
       x1="272.23611"
       y1="419.50162"
       x2="275.25827"
       y2="467.48386" />
    <linearGradient
       inkscape:collect="always"
       xlink:href="#linearGradient9592"
       id="linearGradient3145"
       gradientUnits="userSpaceOnUse"
       x1="146.42857"
       y1="578.07648"
       x2="5.9452562"
       y2="577.43024" />
    <linearGradient
       inkscape:collect="always"
       xlink:href="#linearGradient7800"
       id="linearGradient3147"
       gradientUnits="userSpaceOnUse"
       x1="144.64285"
       y1="578.43359"
       x2="5.928566"
       y2="579.86218" />
    <linearGradient
       inkscape:collect="always"
       xlink:href="#linearGradient12263"
       id="linearGradient3149"
       gradientUnits="userSpaceOnUse"
       x1="140.23151"
       y1="605.49329"
       x2="0.96580404"
       y2="551.651" />
    <linearGradient
       inkscape:collect="always"
       xlink:href="#linearGradient13399"
       id="linearGradient3151"
       gradientUnits="userSpaceOnUse"
       x1="115.3679"
       y1="627.10693"
       x2="-83.017815"
       y2="550.66876" />
    <linearGradient
       inkscape:collect="always"
       xlink:href="#linearGradient5073"
       id="linearGradient3153"
       gradientUnits="userSpaceOnUse"
       gradientTransform="matrix(0.513958,0,0,0.513958,169.5378,181.1977)"
       x1="69.839012"
       y1="522.38086"
       x2="81.11171"
       y2="575.41388" />
    <linearGradient
       inkscape:collect="always"
       xlink:href="#linearGradient2231"
       id="linearGradient3155"
       gradientUnits="userSpaceOnUse"
       gradientTransform="matrix(0.513958,0,0,0.513958,169.5378,181.1977)"
       x1="162.63963"
       y1="585.54541"
       x2="60.351536"
       y2="555.1095" />
    <linearGradient
       inkscape:collect="always"
       xlink:href="#linearGradient13387"
       id="linearGradient3157"
       gradientUnits="userSpaceOnUse"
       x1="248.39285"
       y1="501.64789"
       x2="141.07143"
       y2="468.79074" />
    <linearGradient
       inkscape:collect="always"
       xlink:href="#linearGradient9592"
       id="linearGradient3159"
       gradientUnits="userSpaceOnUse"
       x1="146.42857"
       y1="578.07648"
       x2="5.9452562"
       y2="577.43024" />
    <linearGradient
       inkscape:collect="always"
       xlink:href="#linearGradient7800"
       id="linearGradient3161"
       gradientUnits="userSpaceOnUse"
       x1="144.64285"
       y1="578.43359"
       x2="5.928566"
       y2="579.86218" />
    <linearGradient
       inkscape:collect="always"
       xlink:href="#linearGradient12263"
       id="linearGradient3163"
       gradientUnits="userSpaceOnUse"
       x1="140.23151"
       y1="605.49329"
       x2="0.96580404"
       y2="551.651" />
    <linearGradient
       inkscape:collect="always"
       xlink:href="#linearGradient5073"
       id="linearGradient3165"
       gradientUnits="userSpaceOnUse"
       x1="69.839012"
       y1="522.38086"
       x2="81.11171"
       y2="575.41388" />
    <linearGradient
       inkscape:collect="always"
       xlink:href="#linearGradient2231"
       id="linearGradient3167"
       gradientUnits="userSpaceOnUse"
       x1="162.63963"
       y1="585.54541"
       x2="60.351536"
       y2="555.1095" />
  </defs>
  <sodipodi:namedview
     id="base"
     pagecolor="#ffffff"
     bordercolor="#666666"
     borderopacity="1.0"
     inkscape:pageopacity="0.0"
     inkscape:pageshadow="2"
     inkscape:cx="30"
     inkscape:cy="30"
     inkscape:zoom="13.083333"
     inkscape:document-units="px"
     inkscape:current-layer="layer1"
     width="729.09003px"
     inkscape:window-width="1680"
     inkscape:window-height="1002"
     inkscape:window-x="0"
     inkscape:window-y="0"
     showgrid="false"
     inkscape:window-maximized="0" />
  <metadata
     id="metadata13650">
    <rdf:RDF>
      <cc:Work
         rdf:about="">
        <dc:format>image/svg+xml</dc:format>
        <dc:type
           rdf:resource="http://purl.org/dc/dcmitype/StillImage" />
        <dc:title></dc:title>
      </cc:Work>
    </rdf:RDF>
  </metadata>
  <g
     inkscape:groupmode="layer"
     inkscape:label="Warstwa 1"
     id="layer1"
     transform="translate(151.72453,67.347745)">
    <g
       id="g3093"
       transform="matrix(0.11204755,0,0,0.21537905,-135.18114,-52.917273)">
      <g
         inkscape:export-ydpi="138.55963"
         inkscape:export-xdpi="138.55963"
         inkscape:export-filename="/home/kamil/moneyK.png"
         transform="matrix(1.3312643,0,0,1.3312643,-59.27291,-673.55492)"
         id="g13742">
        <path
           sodipodi:type="arc"
           style="fill:url(#linearGradient3131);fill-opacity:1;stroke:#000000;stroke-opacity:1"
           id="path13744"
           sodipodi:cx="76.071426"
           sodipodi:cy="579.86218"
           sodipodi:rx="69.64286"
           sodipodi:ry="32.5"
           d="m 145.71429,579.86218 c 0,17.94926 -31.18017,32.5 -69.642864,32.5 -38.462689,0 -69.64286,-14.55074 -69.64286,-32.5 0,-17.94925 31.180171,-32.5 69.64286,-32.5 38.462694,0 69.642864,14.55075 69.642864,32.5 z"
           transform="matrix(1.000238,0,0,0.934576,39.52014,34.95352)" />
        <path
           sodipodi:type="arc"
           style="fill:url(#linearGradient3133);fill-opacity:1;stroke:#000000;stroke-opacity:1"
           id="path13746"
           sodipodi:cx="76.071426"
           sodipodi:cy="579.86218"
           sodipodi:rx="69.64286"
           sodipodi:ry="32.5"
           d="m 145.71429,579.86218 c 0,17.94926 -31.18017,32.5 -69.642864,32.5 -38.462689,0 -69.64286,-14.55074 -69.64286,-32.5 0,-17.94925 31.180171,-32.5 69.64286,-32.5 38.462694,0 69.642864,14.55075 69.642864,32.5 z"
           transform="translate(38.92857,-11.07143)" />
        <path
           inkscape:connector-curvature="0"
           style="fill:none;stroke:#000000;stroke-width:1px;stroke-linecap:butt;stroke-linejoin:miter;stroke-opacity:1"
           d="m 45.357143,568.79075 0.609681,9.09446 0.461748,3.0484 -0.126269,-6.59445"
           id="path13748"
           sodipodi:nodetypes="cccc" />
        <path
           inkscape:connector-curvature="0"
           style="fill:none;stroke:#000000;stroke-width:1px;stroke-linecap:butt;stroke-linejoin:miter;stroke-opacity:1"
           d="m 184.60538,567.48896 0.50507,9.21765 -0.50507,4.0406 -0.37881,-7.95495 -0.12627,0"
           id="path13750"
           sodipodi:nodetypes="ccccc" />
        <path
           inkscape:connector-curvature="0"
           style="fill:#000000;fill-opacity:0.4678112;fill-rule:evenodd;stroke:none"
           d="m 54.295699,584.66155 0.07748,6.81853 c 6.965474,7.35133 30.728099,12.87633 41.513826,15.08915 l 0.07748,-6.69226 C 84.445722,599.82247 61.832188,592.78368 54.68311,585.16663"
           id="path13752"
           sodipodi:nodetypes="ccccc" />
        <path
           inkscape:connector-curvature="0"
           style="fill:#000000;fill-opacity:0.4678112;fill-rule:evenodd;stroke:none"
           d="m 139.74829,599.2772 0.0775,6.06091 c 5.80165,-0.59678 28.84995,-3.03914 42.33457,-19.50857 l 0.0775,-8.9651 c -8.58796,12.09332 -29.73255,21.18475 -40.9657,21.40261"
           id="path13754"
           sodipodi:nodetypes="ccccc" />
        <path
           sodipodi:type="arc"
           style="fill:url(#linearGradient3135);fill-opacity:1;stroke:#000000;stroke-opacity:1"
           id="path13756"
           sodipodi:cx="76.071426"
           sodipodi:cy="579.86218"
           sodipodi:rx="69.64286"
           sodipodi:ry="32.5"
           d="m 145.71429,579.86218 c 0,17.94926 -31.18017,32.5 -69.642864,32.5 -38.462689,0 -69.64286,-14.55074 -69.64286,-32.5 0,-17.94925 31.180171,-32.5 69.64286,-32.5 38.462694,0 69.642864,14.55075 69.642864,32.5 z"
           transform="matrix(0.915959,0,0,0.877267,45.32268,59.80498)" />
        <path
           inkscape:connector-curvature="0"
           style="fill:url(#linearGradient3137);fill-rule:evenodd;stroke:none"
           d="m 145.46197,576.58033 c 9.59645,-9.59645 16.16244,-15.15228 7.07106,-23.73858 -9.09137,-8.5863 -29.29442,-12.62691 -48.99239,-11.11168 -19.697979,1.51523 -36.870572,7.57614 -42.931487,16.66752 -6.060916,9.09137 -4.545687,16.16244 1.010152,20.20305 5.555839,4.04061 13.131983,4.54569 13.131983,4.54569"
           id="path13758" />
        <path
           inkscape:connector-curvature="0"
           style="fill:url(#linearGradient3139);fill-rule:evenodd;stroke:#000000;stroke-width:1px;stroke-linecap:butt;stroke-linejoin:miter;stroke-opacity:1"
           d="m 59.093924,576.32779 c 4.692151,4.03369 10.043154,7.99418 20.708127,11.36422 l 89.903579,-24.74874 c -2.96859,-6.3023 -9.40944,-10.86847 -20.45559,-13.13198 l -31.81981,-2.77792 -30.809649,6.31345 34.850269,4.5457 -62.376926,18.43528"
           id="path13760"
           sodipodi:nodetypes="cccccccc" />
      </g>
      <path
         inkscape:connector-curvature="0"
         sodipodi:nodetypes="csccscc"
         id="path13765"
         d="m -80.985204,22.254872 c 0,0 213.508374,116.911958 231.561834,128.209348 19.23253,12.03524 72.7316,59.66168 71.95422,60.17993 L 386.06323,113.833 c 0,0 -141.29198,-102.044198 -166.14889,-111.2020275 C 195.05743,-6.5268293 77.314133,-47.082869 77.314133,-47.082869 L -80.985204,22.254872 z"
         style="fill:#008000;fill-rule:evenodd;stroke:#000000;stroke-width:2.59022069px;stroke-linecap:butt;stroke-linejoin:miter;stroke-opacity:1" />
      <path
         inkscape:connector-curvature="0"
         sodipodi:nodetypes="csccscc"
         id="path13767"
         d="m -81.639338,16.367716 c 0,0 213.694538,116.619754 231.561818,128.209354 48.40558,31.39821 74.57074,51.02212 74.57074,51.02212 L 385.40909,92.246723 c 0,0 -81.11206,-54.946867 -166.14887,-95.5029069 C 195.35003,-14.6595 76.659987,-52.970026 76.659987,-52.970026 L -81.639338,16.367716 z"
         style="fill:#008000;fill-rule:evenodd;stroke:#000000;stroke-width:2.59022069px;stroke-linecap:butt;stroke-linejoin:miter;stroke-opacity:1" />
      <path
         inkscape:connector-curvature="0"
         sodipodi:nodetypes="csccscc"
         id="path13769"
         d="m -80.331095,9.8263997 c 0,0 213.467115,116.9781403 231.561825,128.2093603 37.9395,23.54866 73.26249,37.9395 73.26249,37.9395 L 382.79255,66.081532 c 0,0 -83.72857,-41.864283 -162.22411,-75.8790321 C 196.26221,-20.330217 77.968232,-59.511344 77.968232,-59.511344 L -80.331095,9.8263997 z"
         style="fill:#008000;fill-rule:evenodd;stroke:#000000;stroke-width:2.59022069px;stroke-linecap:butt;stroke-linejoin:miter;stroke-opacity:1" />
      <path
         inkscape:connector-curvature="0"
         sodipodi:nodetypes="csccscc"
         id="path13771"
         d="m -79.022827,3.2851067 c 0,0 212.855407,118.0295633 231.561817,128.2093633 34.45469,18.74979 71.95423,18.31563 71.95423,18.31563 L 378.86782,22.908981 c 0,0 -87.65338,-3.924754 -155.68285,-36.631261 C 199.31061,-25.200351 79.276501,-66.052635 79.276501,-66.052635 L -79.022827,3.2851067 z"
         style="fill:#008000;fill-rule:evenodd;stroke:#000000;stroke-width:2.59022069px;stroke-linecap:butt;stroke-linejoin:miter;stroke-opacity:1" />
      <path
         inkscape:connector-curvature="0"
         sodipodi:nodetypes="csccscc"
         id="path13773"
         d="m -64.043504,2.8089467 c 0,0 201.354474,113.4857833 219.823384,121.7100833 33.85463,15.07563 65.69018,16.0789 65.69018,16.0789 L 360.16943,27.97931 c 0,0 -76.6687,-3.725798 -141.24957,-34.7743314 C 196.25574,-17.691248 80.99819,-60.397405 80.99819,-60.397405 L -64.043504,2.8089467 z"
         style="fill:url(#linearGradient3141);fill-opacity:1;fill-rule:evenodd;stroke:#000000;stroke-width:2.45891571px;stroke-linecap:butt;stroke-linejoin:miter;stroke-opacity:1" />
      <path
         inkscape:connector-curvature="0"
         sodipodi:nodetypes="csssc"
         id="path13775"
         d="m 70.772815,35.337454 c -18.315609,0 -108.585468,-9.157802 -103.352445,-31.3982131 5.23305,-22.2404089 91.578122,-54.9468899 129.517626,-49.7138419 37.939504,5.233022 154.374554,47.0973052 150.449794,69.337716 -3.92476,22.240383 6.54127,7.849559 6.54127,7.849559"
         style="fill:url(#linearGradient3143);fill-opacity:1;fill-rule:evenodd;stroke:none" />
      <g
         inkscape:export-ydpi="138.55963"
         inkscape:export-xdpi="138.55963"
         inkscape:export-filename="/home/kamil/moneyK.png"
         transform="matrix(2.5902205,0,0,2.5902205,-646.24582,-1217.4679)"
         id="g13779">
        <path
           sodipodi:type="arc"
           style="fill:url(#linearGradient3145);fill-opacity:1;stroke:#000000;stroke-opacity:1"
           id="path13781"
           sodipodi:cx="76.071426"
           sodipodi:cy="579.86218"
           sodipodi:rx="69.64286"
           sodipodi:ry="32.5"
           d="m 145.71429,579.86218 c 0,17.94926 -31.18017,32.5 -69.642864,32.5 -38.462689,0 -69.64286,-14.55074 -69.64286,-32.5 0,-17.94925 31.180171,-32.5 69.64286,-32.5 38.462694,0 69.642864,14.55075 69.642864,32.5 z"
           transform="matrix(0.51408,0,0,0.480333,189.8495,199.1623)" />
        <path
           sodipodi:type="arc"
           style="fill:url(#linearGradient3147);fill-opacity:1;stroke:#000000;stroke-opacity:1"
           id="path13783"
           sodipodi:cx="76.071426"
           sodipodi:cy="579.86218"
           sodipodi:rx="69.64286"
           sodipodi:ry="32.5"
           d="m 145.71429,579.86218 c 0,17.94926 -31.18017,32.5 -69.642864,32.5 -38.462689,0 -69.64286,-14.55074 -69.64286,-32.5 0,-17.94925 31.180171,-32.5 69.64286,-32.5 38.462694,0 69.642864,14.55075 69.642864,32.5 z"
           transform="matrix(0.513958,0,0,0.513958,189.5454,175.5074)" />
        <path
           inkscape:connector-curvature="0"
           style="fill:none;stroke:#000000;stroke-width:0.51395798px;stroke-linecap:butt;stroke-linejoin:miter;stroke-opacity:1"
           d="m 192.84947,473.53226 0.31335,4.67417 0.23732,1.56675 -0.0649,-3.38927"
           id="path13785"
           sodipodi:nodetypes="cccc" />
        <path
           inkscape:connector-curvature="0"
           style="fill:none;stroke:#000000;stroke-width:0.51395798px;stroke-linecap:butt;stroke-linejoin:miter;stroke-opacity:1"
           d="m 264.41721,472.86319 0.25959,4.73749 -0.25959,2.07669 -0.19469,-4.08851 -0.0649,0"
           id="path13787"
           sodipodi:nodetypes="ccccc" />
        <path
           inkscape:connector-curvature="0"
           style="fill:#000000;fill-opacity:0.4678112;fill-rule:evenodd;stroke:none"
           d="m 197.44351,481.68918 0.0398,3.50444 c 3.57996,3.77827 15.79295,6.61789 21.33636,7.75519 l 0.0398,-3.43954 c -5.92016,-0.028 -17.54257,-3.64566 -21.2169,-7.5605"
           id="path13789"
           sodipodi:nodetypes="ccccc" />
        <path
           inkscape:connector-curvature="0"
           style="fill:#000000;fill-opacity:0.4678112;fill-rule:evenodd;stroke:none"
           d="m 241.36255,489.20101 0.0398,3.11505 c 2.9818,-0.30672 14.82766,-1.56199 21.75819,-10.02658 l 0.0398,-4.60769 c -4.41385,6.21546 -15.28128,10.88808 -21.05465,11.00005"
           id="path13791"
           sodipodi:nodetypes="ccccc" />
        <path
           sodipodi:type="arc"
           style="fill:url(#linearGradient3149);fill-opacity:1;stroke:url(#linearGradient3151);stroke-opacity:1"
           id="path13793"
           sodipodi:cx="76.071426"
           sodipodi:cy="579.86218"
           sodipodi:rx="69.64286"
           sodipodi:ry="32.5"
           d="m 145.71429,579.86218 c 0,17.94926 -31.18017,32.5 -69.642864,32.5 -38.462689,0 -69.64286,-14.55074 -69.64286,-32.5 0,-17.94925 31.180171,-32.5 69.64286,-32.5 38.462694,0 69.642864,14.55075 69.642864,32.5 z"
           transform="matrix(0.470764,0,0,0.450878,192.8318,211.9349)" />
        <path
           inkscape:connector-curvature="0"
           style="fill:url(#linearGradient3153);fill-rule:evenodd;stroke:none"
           d="m 244.29914,477.53577 c 4.93218,-4.93217 8.30682,-7.78763 3.63423,-12.20063 -4.67258,-4.413 -15.0561,-6.4897 -25.18003,-5.71094 -10.12393,0.77877 -18.94993,3.89382 -22.06498,8.56641 -3.11506,4.67258 -2.33629,8.30681 0.51917,10.38352 2.85547,2.0767 6.74929,2.33629 6.74929,2.33629"
           id="path13795" />
        <path
           inkscape:connector-curvature="0"
           style="fill:url(#linearGradient3155);fill-opacity:1;fill-rule:evenodd;stroke:url(#linearGradient3157);stroke-width:0.51395798px;stroke-linecap:butt;stroke-linejoin:miter;stroke-opacity:1"
           d="m 199.90959,477.40598 c 2.41157,2.07315 5.16176,4.10867 10.64311,5.84073 l 46.20667,-12.71981 c -1.52573,-3.23912 -4.83606,-5.58594 -10.51332,-6.74929 l -16.35404,-1.42773 -15.83487,3.24484 17.91158,2.3363 -32.05913,9.47496"
           id="path13797"
           sodipodi:nodetypes="cccccccc" />
      </g>
      <g
         inkscape:export-ydpi="138.55963"
         inkscape:export-xdpi="138.55963"
         inkscape:export-filename="/home/kamil/moneyK.png"
         transform="matrix(1.2221595,0,0,1.2221595,16.103857,-721.06651)"
         id="g13801">
        <path
           sodipodi:type="arc"
           style="fill:url(#linearGradient3159);fill-opacity:1;stroke:#000000;stroke-opacity:1"
           id="path13803"
           sodipodi:cx="76.071426"
           sodipodi:cy="579.86218"
           sodipodi:rx="69.64286"
           sodipodi:ry="32.5"
           d="m 145.71429,579.86218 c 0,17.94926 -31.18017,32.5 -69.642864,32.5 -38.462689,0 -69.64286,-14.55074 -69.64286,-32.5 0,-17.94925 31.180171,-32.5 69.64286,-32.5 38.462694,0 69.642864,14.55075 69.642864,32.5 z"
           transform="matrix(1.000238,0,0,0.934576,39.52014,34.95352)" />
        <path
           sodipodi:type="arc"
           style="fill:url(#linearGradient3161);fill-opacity:1;stroke:#000000;stroke-opacity:1"
           id="path13805"
           sodipodi:cx="76.071426"
           sodipodi:cy="579.86218"
           sodipodi:rx="69.64286"
           sodipodi:ry="32.5"
           d="m 145.71429,579.86218 c 0,17.94926 -31.18017,32.5 -69.642864,32.5 -38.462689,0 -69.64286,-14.55074 -69.64286,-32.5 0,-17.94925 31.180171,-32.5 69.64286,-32.5 38.462694,0 69.642864,14.55075 69.642864,32.5 z"
           transform="translate(38.92857,-11.07143)" />
        <path
           inkscape:connector-curvature="0"
           style="fill:none;stroke:#000000;stroke-width:1px;stroke-linecap:butt;stroke-linejoin:miter;stroke-opacity:1"
           d="m 45.357143,568.79075 0.609681,9.09446 0.461748,3.0484 -0.126269,-6.59445"
           id="path13807"
           sodipodi:nodetypes="cccc" />
        <path
           inkscape:connector-curvature="0"
           style="fill:none;stroke:#000000;stroke-width:1px;stroke-linecap:butt;stroke-linejoin:miter;stroke-opacity:1"
           d="m 184.60538,567.48896 0.50507,9.21765 -0.50507,4.0406 -0.37881,-7.95495 -0.12627,0"
           id="path13809"
           sodipodi:nodetypes="ccccc" />
        <path
           inkscape:connector-curvature="0"
           style="fill:#000000;fill-opacity:0.4678112;fill-rule:evenodd;stroke:none"
           d="m 54.295699,584.66155 0.07748,6.81853 c 6.965474,7.35133 30.728099,12.87633 41.513826,15.08915 l 0.07748,-6.69226 C 84.445722,599.82247 61.832188,592.78368 54.68311,585.16663"
           id="path13811"
           sodipodi:nodetypes="ccccc" />
        <path
           inkscape:connector-curvature="0"
           style="fill:#000000;fill-opacity:0.4678112;fill-rule:evenodd;stroke:none"
           d="m 139.74829,599.2772 0.0775,6.06091 c 5.80165,-0.59678 28.84995,-3.03914 42.33457,-19.50857 l 0.0775,-8.9651 c -8.58796,12.09332 -29.73255,21.18475 -40.9657,21.40261"
           id="path13813"
           sodipodi:nodetypes="ccccc" />
        <path
           sodipodi:type="arc"
           style="fill:url(#linearGradient3163);fill-opacity:1;stroke:#000000;stroke-opacity:1"
           id="path13815"
           sodipodi:cx="76.071426"
           sodipodi:cy="579.86218"
           sodipodi:rx="69.64286"
           sodipodi:ry="32.5"
           d="m 145.71429,579.86218 c 0,17.94926 -31.18017,32.5 -69.642864,32.5 -38.462689,0 -69.64286,-14.55074 -69.64286,-32.5 0,-17.94925 31.180171,-32.5 69.64286,-32.5 38.462694,0 69.642864,14.55075 69.642864,32.5 z"
           transform="matrix(0.915959,0,0,0.877267,45.32268,59.80498)" />
        <path
           inkscape:connector-curvature="0"
           style="fill:url(#linearGradient3165);fill-rule:evenodd;stroke:none"
           d="m 145.46197,576.58033 c 9.59645,-9.59645 16.16244,-15.15228 7.07106,-23.73858 -9.09137,-8.5863 -29.29442,-12.62691 -48.99239,-11.11168 -19.697979,1.51523 -36.870572,7.57614 -42.931487,16.66752 -6.060916,9.09137 -4.545687,16.16244 1.010152,20.20305 5.555839,4.04061 13.131983,4.54569 13.131983,4.54569"
           id="path13817" />
        <path
           inkscape:connector-curvature="0"
           style="fill:url(#linearGradient3167);fill-rule:evenodd;stroke:#000000;stroke-width:1px;stroke-linecap:butt;stroke-linejoin:miter;stroke-opacity:1"
           d="m 59.093924,576.32779 c 4.692151,4.03369 10.043154,7.99418 20.708127,11.36422 l 89.903579,-24.74874 c -2.96859,-6.3023 -9.40944,-10.86847 -20.45559,-13.13198 l -31.81981,-2.77792 -30.809649,6.31345 34.850269,4.5457 -62.376926,18.43528"
           id="path13819"
           sodipodi:nodetypes="cccccccc" />
      </g>
    </g>
  </g>
</svg>
