<?xml version="1.0" encoding="UTF-8" standalone="no"?>
<!-- Created with Inkscape (http://www.inkscape.org/) -->

<svg
   xmlns:dc="http://purl.org/dc/elements/1.1/"
   xmlns:cc="http://creativecommons.org/ns#"
   xmlns:rdf="http://www.w3.org/1999/02/22-rdf-syntax-ns#"
   xmlns:svg="http://www.w3.org/2000/svg"
   xmlns="http://www.w3.org/2000/svg"
   xmlns:sodipodi="http://sodipodi.sourceforge.net/DTD/sodipodi-0.dtd"
   xmlns:inkscape="http://www.inkscape.org/namespaces/inkscape"
   width="60"
   height="60"
   id="svg3068"
   version="1.1"
   inkscape:version="0.91 r13725"
   sodipodi:docname="music.svg"
   inkscape:export-filename="/Users/aboudou/Desktop/music@3x.png"
   inkscape:export-xdpi="135.00002"
   inkscape:export-ydpi="135.00002">
  <defs
     id="defs3" />
  <sodipodi:namedview
     inkscape:document-units="mm"
     id="base"
     pagecolor="#ffffff"
     bordercolor="#666666"
     borderopacity="1.0"
     inkscape:pageopacity="0.0"
     inkscape:pageshadow="2"
     inkscape:zoom="13.083333"
     inkscape:cx="13.414012"
     inkscape:cy="30"
     inkscape:current-layer="layer1"
     showgrid="false"
     units="mm"
     inkscape:window-width="1440"
     inkscape:window-height="855"
     inkscape:window-x="0"
     inkscape:window-y="0"
     inkscape:window-maximized="0" />
  <metadata
     id="metadata4">
    <rdf:RDF>
      <cc:Work
         rdf:about="">
        <dc:format>image/svg+xml</dc:format>
        <dc:type
           rdf:resource="http://purl.org/dc/dcmitype/StillImage" />
        <dc:title />
      </cc:Work>
    </rdf:RDF>
  </metadata>
  <g
     inkscape:label="Layer 1"
     inkscape:groupmode="layer"
     id="layer1"
     transform="translate(0,-857.4803)">
    <path
       style="fill:#000000"
       d="m 38.031386,917.18059 c -4.917308,-0.93178 -9.528104,-6.78098 -7.993254,-12.78208 1.02363,-5.34175 5.819879,-9.61654 10.572691,-8.33616 2.514549,-0.26324 5.387817,2.60752 7.0327,2.65667 1.673251,-4.90997 3.343673,-9.83656 4.546491,-14.93638 -2.938087,-2.12915 -6.360784,-3.11319 -9.439615,-4.93545 -4.133955,-2.10269 -8.239926,-4.28122 -12.297137,-6.57772 -2.629693,2.03958 -2.284867,6.38675 -3.774181,9.3544 -1.960926,5.71569 -3.854015,11.48726 -5.13582,17.45949 -1.270964,4.02008 -3.561859,8.4459 -7.591559,8.94479 -4.8819161,1.15673 -10.5845548,-1.35227 -13.04791449,-6.50201 -2.27274071,-6.06264 -0.11830035,-13.87646 4.88355939,-17.06645 3.321589,-1.50721 7.4510841,-1.08372 10.3592351,1.38976 1.476479,1.15671 4.189112,5.89319 4.486769,1.21783 1.360743,-7.55243 4.428943,-14.51291 6.926599,-21.62547 1.13067,-2.51849 1.33874,-5.70557 3.180802,-7.70291 2.195199,-0.95415 4.501194,0.98886 6.633254,1.67417 4.598919,2.3783 9.532512,3.74406 14.030103,6.41482 2.581278,1.71317 5.695935,2.35573 7.931561,4.70448 1.873829,2.74942 -0.761651,5.79193 -1.243149,8.60591 -2.394303,7.92406 -4.268231,16.06583 -7.136926,23.7891 -1.427726,4.63398 -2.353172,10.0959 -5.975055,13.16138 -2.089861,1.34599 -4.627403,1.72781 -6.949154,1.09183 z m 5.18536,-3.60006 c 2.703432,-2.60916 4.275257,-7.20708 2.168553,-10.89745 -1.826691,-3.10985 -5.719538,-3.45341 -8.561113,-2.32572 -2.429522,1.27605 -4.153759,4.36614 -3.94904,7.49335 1.597722,4.41544 6.313088,7.71983 10.3416,5.72982 z m -29.1013,-10.32774 c 2.931124,-2.20714 4.699549,-7.1218 2.711346,-10.80833 -1.911836,-5.06964 -8.508589,-6.75923 -11.7525469,-2.44617 -2.5269353,2.64096 -2.7201022,7.50109 -0.3644433,10.36327 2.1075509,3.2436 6.1973002,4.44079 9.4056442,2.89123 z m 41.457385,-27.45908 c 1.705073,-3.90828 -3.595183,-4.30989 -5.549813,-5.81846 -4.692485,-1.98711 -9.485644,-3.77455 -13.77867,-6.80777 -3.032525,-2.88968 -5.935641,4.29405 -1.987875,4.80975 6.51573,3.6605 13.320283,6.54933 19.978583,9.82585 0.929901,0.11344 0.947511,-1.36521 1.337775,-2.00937 z"
       inkscape:connector-curvature="0"
       sodipodi:nodetypes="ccccccccccccccccccccccccccccccccccccccc"
       id="path7" />
  </g>
</svg>
